<?xml version="1.0" encoding="UTF-8"?>
<svg id="Layer_2" data-name="Layer 2" xmlns="http://www.w3.org/2000/svg" viewBox="0 0 18 18">
  <defs>
    <style>
      .cls-1 {
        fill: #8b8b94;
      }
    </style>
  </defs>
  <g id="Layer_1-2" data-name="Layer 1">
    <path class="cls-1" d="M16.6,18l-6.3-6.3c-.5,.4-1.08,.72-1.73,.95s-1.34,.35-2.08,.35c-1.82,0-3.35-.63-4.61-1.89S0,8.32,0,6.5,.63,3.15,1.89,1.89,4.68,0,6.5,0s3.35,.63,4.61,1.89,1.89,2.8,1.89,4.61c0,.73-.12,1.43-.35,2.08s-.55,1.23-.95,1.73l6.3,6.3-1.4,1.4ZM6.5,11c1.25,0,2.31-.44,3.19-1.31s1.31-1.94,1.31-3.19-.44-2.31-1.31-3.19-1.94-1.31-3.19-1.31-2.31,.44-3.19,1.31-1.31,1.94-1.31,3.19,.44,2.31,1.31,3.19,1.94,1.31,3.19,1.31Z"/>
  </g>
</svg>